@startuml
scale max 1024 width
hide empty description

title
	= PlaceOrder state transitions
	---
	//top: internal state//
	//bottom: exposed GraphQL state//
end title

state New: Commerce_Checkout_PlaceOrderState_State_Wait
state PrepareCart: Commerce_Checkout_PlaceOrderState_State_Wait
state ValidateCart: Commerce_Checkout_PlaceOrderState_State_Wait
state CreatePayment: Commerce_Checkout_PlaceOrderState_State_Wait
state CompleteCart: Commerce_Checkout_PlaceOrderState_State_Wait
state PlaceOrder: Commerce_Checkout_PlaceOrderState_State_Wait
state ValidatePayment: Commerce_Checkout_PlaceOrderState_State_Wait
state ValidatePaymentSelection: Commerce_Checkout_PlaceOrderState_State_Wait


state Failed: Commerce_Checkout_PlaceOrderState_State_Failed
state Success: Commerce_Checkout_PlaceOrderState_State_Success

state Validate {
	state PostRedirect: Commerce_Checkout_PlaceOrderState_State_PostRedirect
	--
	state ShowWalletPayment: Commerce_Checkout_PlaceOrderState_State_ShowWalletPayment
	--
	state Redirect: Commerce_Checkout_PlaceOrderState_State_Redirect
	--
	state ShowHTML: Commerce_Checkout_PlaceOrderState_State_ShowHTML
	--
	state ShowIframe: Commerce_Checkout_PlaceOrderState_State_ShowIframe
	--
	state WaitForCustomer: Commerce_Checkout_PlaceOrderState_State_WaitForCustomer
	--
	state CompletePayment: Commerce_Checkout_PlaceOrderState_State_Wait
}

note top of Validate
  Loops with ValidatePayment
  until failed or success is reached
end note

[*] --> New
New -r-> PrepareCart
PrepareCart -d-> ValidateCart
PrepareCart -d-> Failed
ValidateCart -d-> ValidatePaymentSelection
ValidateCart -r-> Failed
ValidatePaymentSelection -d-> CreatePayment
ValidatePaymentSelection -r-> Failed
CreatePayment -d-> CompleteCart
CreatePayment -r-> Failed
CompleteCart -d-> PlaceOrder
CompleteCart -r-> Failed
PlaceOrder -d-> ValidatePayment
PlaceOrder -r-> Failed

ValidatePayment -r-> Validate
Validate -l-> ValidatePayment

Validate -u---> Failed
Validate -r-> Success

Failed --> [*]
Success -> [*]

@enduml
